# xmcd CD database file
#
# Track frame offsets:
#	150
#	44627
#	74705
#	104030
#	126562
#
# Disc length: 1940 seconds
#
# Revision: 1
# Processed by: cddbd v1.5.1PL0 Copyright (c) Steve Scherf et al.
# Submitted via: CDex 1.51
#
DISCID=56079205
DTITLE=Hank Mobley - The Jazz Message Of Hank Mobley #2
DYEAR=1956
DGENRE=Jazz
TTITLE0=Thad's Blues
TTITLE1=Doug's Minor B' Ok
TTITLE2=B. For B.B.
TTITLE3=Blues Number Two
TTITLE4=Space Flight
EXTD=YEAR: 1956
EXTT0=
EXTT1=
EXTT2=
EXTT3=
EXTT4=
PLAYORDER=
